<?xml version="1.0" encoding="utf-8"?>
<!-- Generator: Adobe Illustrator 19.2.1, SVG Export Plug-In . SVG Version: 6.00 Build 0)  -->
<svg version="1.0" id="Rectángulo_redondeado_4_copia_5_1_" opacity="0.2"
	 xmlns="http://www.w3.org/2000/svg" xmlns:xlink="http://www.w3.org/1999/xlink" x="0px" y="0px" width="1841px" height="1049px"
	 viewBox="0 0 1841 1049" style="enable-background:new 0 0 1841 1049;" xml:space="preserve">
<style type="text/css">
	.st0{fill:#FFFFFF;}
</style>
<g id="Rectángulo_redondeado_4_copia_5">
	<g>
		<path class="st0" d="M191.7,380.7c8.3,8.3,21.8,8.3,30.1,0l72.5-72.5c8.3-8.3,8.3-21.8,0-30.1l-0.7-0.7c-8.3-8.3-21.8-8.3-30.1,0
			L191.1,350c-8.3,8.3-8.3,21.8,0,30.1L191.7,380.7z M316.2,937.4c-8.3-8.3-21.8-8.3-30.1,0l-72.5,72.5c-8.3,8.3-8.3,21.8,0,30.1
			l0.7,0.7c8.3,8.3,21.8,8.3,30.1,0l72.5-72.5c8.3-8.3,8.3-21.8,0-30.1L316.2,937.4z M310,257.2c8.3,8.3,21.8,8.3,30.1,0l24.2-24.2
			c8.3-8.3,8.3-21.8,0-30.1l-0.7-0.7c-8.3-8.3-21.8-8.3-30.1,0l-24.2,24.2c-8.3,8.3-8.3,21.8,0,30.1L310,257.2z M1588.7,313.7
			c8.3,8.3,21.8,8.3,30.1,0l72.5-72.5c8.3-8.3,8.3-21.8,0-30.1l-0.7-0.7c-8.3-8.3-21.8-8.3-30.1,0l-72.5,72.5
			c-8.3,8.3-8.3,21.8,0,30.1L1588.7,313.7z M1707,190.2c8.3,8.3,21.8,8.3,30.1,0l24.2-24.2c8.3-8.3,8.3-21.8,0-30.1l-0.7-0.7
			c-8.3-8.3-21.8-8.3-30.1,0l-24.2,24.2c-8.3,8.3-8.3,21.8,0,30.1L1707,190.2z M245.4,941.1c8.3-8.3,8.3-21.8,0-30.1l-0.7-0.7
			c-8.3-8.3-21.8-8.3-30.1,0l-24.2,24.2c-8.3,8.3-8.3,21.8,0,30.1l0.7,0.7c8.3,8.3,21.8,8.3,30.1,0L245.4,941.1z M368.8,332.9
			c-12.1-12.1-31.7-12.1-43.8,0l-93.4,93.4c-1-1.4-2.1-2.7-3.3-3.9l-0.7-0.7c-12.1-12.1-31.7-12.1-43.8,0L37.6,568.2
			c-12.1,12.1-12.1,31.7,0,43.8l0.7,0.7c1.2,1.2,2.5,2.3,3.9,3.3l-30,30C0,658.1,0,677.7,12.1,689.8l0.7,0.7
			c12.1,12.1,31.7,12.1,43.8,0l70.5-70.6c12.1,8.7,29,7.6,39.9-3.3l146.3-146.4c10.9-10.9,12-27.8,3.3-39.9l52.9-52.9
			c12.1-12.1,12.1-31.7,0-43.8L368.8,332.9z M685.1,555.6c-18-18-47.1-18-65.1,0l-61,61c-0.6-0.8-1.3-1.7-2.1-2.4l-0.7-0.7
			c-8.3-8.3-21.8-8.3-30.1,0l-72.5,72.5c-8.3,8.3-8.3,21.8,0,30.1l0.7,0.7c0.8,0.8,1.6,1.4,2.4,2.1l-54.5,54.5
			c-18,18-18,47.1,0,65.1l1,1c18,18,47.1,18,65.1,0l6.4-6.4c1.5,4.3,3.9,8.3,7.4,11.7l0.7,0.7c12.1,12.1,31.7,12.1,43.8,0L672.9,699
			c12.1-12.1,12.1-31.7,0-43.8l-0.7-0.7c-3.4-3.4-7.4-5.9-11.7-7.4l25.5-25.5c18-18,18-47.1,0-65.1L685.1,555.6z M968.6,199.4
			l-0.7-0.7c-0.8-0.8-1.6-1.4-2.4-2.1l54.5-54.5c18-18,18-47.2,0-65.1l-1-1c-18-18-47.2-18-65.2,0l-6.4,6.4
			c-1.5-4.3-3.9-8.3-7.4-11.7l-0.7-0.7c-12.1-12.1-31.7-12.1-43.8,0L749.2,216.5c-12.1,12.1-12.1,31.7,0,43.8l0.7,0.7
			c3.4,3.4,7.5,5.9,11.7,7.4L736,293.9c-18,18-18,47.2,0,65.1l1,1c18,18,47.2,18,65.2,0l61.1-61c0.6,0.8,1.3,1.7,2.1,2.4l0.7,0.7
			c8.3,8.3,21.8,8.3,30.1,0l72.6-72.6C976.9,221.2,976.9,207.7,968.6,199.4z M1223.7,326.7c8.3,8.3,21.8,8.3,30.1,0l72.5-72.5
			c8.3-8.3,8.3-21.8,0-30.1l-0.7-0.7c-8.3-8.3-21.8-8.3-30.1,0l-72.5,72.5c-8.3,8.3-8.3,21.8,0,30.1L1223.7,326.7z M1512.2,680.4
			c-8.3-8.3-21.8-8.3-30.1,0l-72.5,72.5c-8.3,8.3-8.3,21.8,0,30.1l0.7,0.7c8.3,8.3,21.8,8.3,30.1,0l72.5-72.5
			c8.3-8.3,8.3-21.8,0-30.1L1512.2,680.4z M1423,63.2c8.3,8.3,21.8,8.3,30.1,0l24.2-24.2c8.3-8.3,8.3-21.8,0-30.1l-0.7-0.7
			c-8.3-8.3-21.8-8.3-30.1,0l-24.2,24.2c-8.3,8.3-8.3,21.8,0,30.1L1423,63.2z M1441.4,684.1c8.3-8.3,8.3-21.8,0-30.1l-0.7-0.7
			c-8.3-8.3-21.8-8.3-30.1,0l-24.2,24.2c-8.3,8.3-8.3,21.8,0,30.1l0.7,0.7c8.3,8.3,21.8,8.3,30.1,0L1441.4,684.1z M1037.6,775
			l-0.7-0.7c-8.3-8.3-21.8-8.3-30.1,0l-72.6,72.6c-8.3,8.3-8.3,21.8,0,30.1l0.7,0.7c8.3,8.3,21.8,8.3,30.1,0l72.6-72.6
			C1045.9,796.7,1045.9,783.3,1037.6,775z M1060,849.8c-8.3-8.3-21.8-8.3-30.1,0l-24.2,24.2c-8.3,8.3-8.3,21.8,0,30.1l0.7,0.7
			c8.3,8.3,21.8,8.3,30.1,0l24.2-24.2c8.3-8.3,8.3-21.8,0-30.1L1060,849.8z M1401.4,323.4c12.1-12.1,12.1-31.7,0-43.8l-0.7-0.7
			c-12.1-12.1-31.7-12.1-43.8,0l-93.4,93.4c-1-1.4-2.1-2.7-3.3-3.9l-0.7-0.7c-12.1-12.1-31.7-12.1-43.8,0l-146.3,146.4
			c-12.1,12.1-12.1,31.7,0,43.8l0.7,0.7c1.2,1.2,2.5,2.3,3.9,3.3l-30,30c-12.1,12.1-12.1,31.7,0,43.8l0.7,0.7
			c12.1,12.1,31.7,12.1,43.8,0l70.5-70.6c12.1,8.7,29,7.6,39.9-3.3l146.3-146.4c10.9-10.9,12-27.8,3.3-39.9L1401.4,323.4z
			 M1823,378.5l-1-1c-18-18-47.1-18-65.1,0l-61,61c-0.6-0.8-1.3-1.7-2.1-2.4l-0.7-0.7c-8.3-8.3-21.8-8.3-30.1,0l-72.5,72.5
			c-8.3,8.3-8.3,21.8,0,30.1l0.7,0.7c0.8,0.8,1.6,1.4,2.4,2.1l-54.5,54.5c-18,18-18,47.1,0,65.1l1,1c18,18,47.1,18,65.1,0l6.4-6.4
			c1.5,4.3,3.9,8.3,7.4,11.7l0.7,0.7c12.1,12.1,31.7,12.1,43.8,0L1809.9,521c12.1-12.1,12.1-31.7,0-43.8l-0.7-0.7
			c-3.4-3.4-7.4-5.9-11.7-7.4l25.5-25.5C1841,425.7,1841,396.5,1823,378.5z"/>
	</g>
</g>
</svg>
