<?xml version="1.0" encoding="utf-8"?>
<!-- Generator: Adobe Illustrator 19.2.1, SVG Export Plug-In . SVG Version: 6.00 Build 0)  -->
<svg version="1.0" xmlns="http://www.w3.org/2000/svg" xmlns:xlink="http://www.w3.org/1999/xlink" x="0px" y="0px" width="1920px"
	 height="134px" viewBox="0 0 1920 134" style="enable-background:new 0 0 1920 134;" xml:space="preserve">
<style type="text/css">
	.st0{enable-background:new    ;}
	.st1{fill-rule:evenodd;clip-rule:evenodd;fill:#FFFFFF;}
	.st2{opacity:0.302;enable-background:new    ;}
</style>
<g id="Forma_1_1_" class="st0">
	<g id="Forma_1">
		<g>
			<path class="st1" d="M1378,83.7C1159.3,83.7,939.1,44,580.2,44S0,83.7,0,83.7V132h1920V44C1920,44,1596.7,83.7,1378,83.7z"/>
		</g>
	</g>
</g>
<g id="Forma_1_copia_1_" class="st2">
	<g id="Forma_1_copia">
		<g>
			<path class="st1" d="M1378,39.7C1159.3,39.7,939.1,0,580.2,0S0,39.7,0,39.7V88h1920V0C1920,0,1596.7,39.7,1378,39.7z"/>
		</g>
	</g>
</g>
<g id="Forma_1_copia_2_1_" class="st2">
	<g id="Forma_1_copia_2">
		<g>
			<path class="st1" d="M1339.8,0C980.9,0,760.7,39.7,542,39.7S0,0,0,0v88h1920V39.7C1920,39.7,1698.6,0,1339.8,0z"/>
		</g>
	</g>
</g>
</svg>
